# xmcd CD database file
#
# Track frame offsets:
#	150
#	16941
#	33569
#	50475
#	66502
#	82283
#	104487
#	120560
#	136768
#	153017
#	165353
#	179415
#	197310
#
# Disc length: 2940 seconds
#
# Revision: 2
# Processed by: cddbd v1.5.2PL0 Copyright (c) Steve Scherf et al.
# Submitted via: cdripper 1,0,39,0213
#
DISCID=a60b7a0d
DTITLE=S.W.V. - I Missed Us
DYEAR=2012
DGENRE=R&B
TTITLE0=Co-Sign
TTITLE1=All About You
TTITLE2=Show Off (feat. A.X.)
TTITLE3=Everything I Love
TTITLE4=Do Ya (feat. Brianna Perry)
TTITLE5=The Best Years
TTITLE6=I Missed Us
TTITLE7=Better Than I
TTITLE8=Keep You Home
TTITLE9=Time To Go
TTITLE10=Use Me
TTITLE11=Love Unconditionally
TTITLE12=If Only You Knew
EXTD=YEAR: 2012
EXTT0=
EXTT1=
EXTT2=
EXTT3=
EXTT4=
EXTT5=
EXTT6=
EXTT7=
EXTT8=
EXTT9=
EXTT10=
EXTT11=
EXTT12=
PLAYORDER=
